<mxfile host="Electron" modified="2023-05-01T03:35:19.209Z" agent="Mozilla/5.0 (Windows NT 10.0; Win64; x64) AppleWebKit/537.36 (KHTML, like Gecko) draw.io/21.2.1 Chrome/112.0.5615.87 Electron/24.1.2 Safari/537.36" etag="LAYDKQObF8muFdXbgqT6" version="21.2.1" type="device" pages="2">
  <diagram name="stp-network-1" id="GEPUWO689JRvTY18AOjP">
    <mxGraphModel dx="978" dy="578" grid="1" gridSize="10" guides="1" tooltips="1" connect="1" arrows="1" fold="1" page="1" pageScale="1" pageWidth="1169" pageHeight="827" math="0" shadow="0">
      <root>
        <mxCell id="0" />
        <mxCell id="1" parent="0" />
        <mxCell id="lZmN-ETSw1SqpxvYg2bJ-47" value="" style="endArrow=none;html=1;rounded=0;exitX=0.5;exitY=1;exitDx=0;exitDy=0;entryX=0.5;entryY=0;entryDx=0;entryDy=0;endFill=0;edgeStyle=orthogonalEdgeStyle;" edge="1" parent="1" source="lZmN-ETSw1SqpxvYg2bJ-52" target="lZmN-ETSw1SqpxvYg2bJ-54">
          <mxGeometry relative="1" as="geometry">
            <mxPoint x="580" y="340" as="sourcePoint" />
            <mxPoint x="350" y="460" as="targetPoint" />
          </mxGeometry>
        </mxCell>
        <mxCell id="lZmN-ETSw1SqpxvYg2bJ-48" value="1Gbps" style="edgeLabel;resizable=0;html=1;align=center;verticalAlign=middle;" connectable="0" vertex="1" parent="lZmN-ETSw1SqpxvYg2bJ-47">
          <mxGeometry relative="1" as="geometry" />
        </mxCell>
        <mxCell id="lZmN-ETSw1SqpxvYg2bJ-49" value="Gi1/0/1" style="edgeLabel;resizable=0;html=1;align=left;verticalAlign=bottom;" connectable="0" vertex="1" parent="lZmN-ETSw1SqpxvYg2bJ-47">
          <mxGeometry x="-1" relative="1" as="geometry">
            <mxPoint x="-19" y="30" as="offset" />
          </mxGeometry>
        </mxCell>
        <mxCell id="lZmN-ETSw1SqpxvYg2bJ-50" value="Gi1/0/2" style="edgeLabel;resizable=0;html=1;align=right;verticalAlign=bottom;" connectable="0" vertex="1" parent="lZmN-ETSw1SqpxvYg2bJ-47">
          <mxGeometry x="1" relative="1" as="geometry">
            <mxPoint x="18" y="-11" as="offset" />
          </mxGeometry>
        </mxCell>
        <mxCell id="lZmN-ETSw1SqpxvYg2bJ-55" value="DP" style="text;html=1;strokeColor=none;fillColor=none;align=center;verticalAlign=middle;whiteSpace=wrap;rounded=0;fontSize=9;fontStyle=1;labelPosition=center;verticalLabelPosition=middle;" vertex="1" parent="1">
          <mxGeometry x="532" y="320" width="52.5" height="30" as="geometry" />
        </mxCell>
        <mxCell id="lZmN-ETSw1SqpxvYg2bJ-56" value="ルートポート（RP)" style="text;html=1;strokeColor=none;fillColor=none;align=center;verticalAlign=middle;whiteSpace=wrap;rounded=0;fontSize=9;fontStyle=1;labelPosition=center;verticalLabelPosition=middle;" vertex="1" parent="1">
          <mxGeometry x="399" y="471" width="120" height="30" as="geometry" />
        </mxCell>
        <mxCell id="lZmN-ETSw1SqpxvYg2bJ-57" value="" style="endArrow=none;html=1;rounded=0;exitX=0.5;exitY=1;exitDx=0;exitDy=0;entryX=0.5;entryY=0;entryDx=0;entryDy=0;endFill=0;edgeStyle=orthogonalEdgeStyle;" edge="1" parent="1" source="lZmN-ETSw1SqpxvYg2bJ-61" target="lZmN-ETSw1SqpxvYg2bJ-62">
          <mxGeometry relative="1" as="geometry">
            <mxPoint x="761" y="350" as="sourcePoint" />
            <mxPoint x="531" y="470" as="targetPoint" />
          </mxGeometry>
        </mxCell>
        <mxCell id="lZmN-ETSw1SqpxvYg2bJ-58" value="1Gbps" style="edgeLabel;resizable=0;html=1;align=center;verticalAlign=middle;" connectable="0" vertex="1" parent="lZmN-ETSw1SqpxvYg2bJ-57">
          <mxGeometry relative="1" as="geometry" />
        </mxCell>
        <mxCell id="lZmN-ETSw1SqpxvYg2bJ-59" value="Gi1/0/1" style="edgeLabel;resizable=0;html=1;align=left;verticalAlign=bottom;" connectable="0" vertex="1" parent="lZmN-ETSw1SqpxvYg2bJ-57">
          <mxGeometry x="-1" relative="1" as="geometry">
            <mxPoint x="-19" y="30" as="offset" />
          </mxGeometry>
        </mxCell>
        <mxCell id="lZmN-ETSw1SqpxvYg2bJ-60" value="Gi1/0/2" style="edgeLabel;resizable=0;html=1;align=right;verticalAlign=bottom;" connectable="0" vertex="1" parent="lZmN-ETSw1SqpxvYg2bJ-57">
          <mxGeometry x="1" relative="1" as="geometry">
            <mxPoint x="18" y="-11" as="offset" />
          </mxGeometry>
        </mxCell>
        <mxCell id="lZmN-ETSw1SqpxvYg2bJ-70" value="" style="endArrow=none;html=1;rounded=0;endFill=0;edgeStyle=orthogonalEdgeStyle;entryX=0;entryY=0.5;entryDx=0;entryDy=0;" edge="1" parent="1" source="lZmN-ETSw1SqpxvYg2bJ-66" target="lZmN-ETSw1SqpxvYg2bJ-67">
          <mxGeometry relative="1" as="geometry">
            <mxPoint x="659" y="320" as="sourcePoint" />
            <mxPoint x="760" y="590" as="targetPoint" />
          </mxGeometry>
        </mxCell>
        <mxCell id="lZmN-ETSw1SqpxvYg2bJ-71" value="1Gbps" style="edgeLabel;resizable=0;html=1;align=center;verticalAlign=middle;" connectable="0" vertex="1" parent="lZmN-ETSw1SqpxvYg2bJ-70">
          <mxGeometry relative="1" as="geometry" />
        </mxCell>
        <mxCell id="lZmN-ETSw1SqpxvYg2bJ-72" value="Gi1/0/1" style="edgeLabel;resizable=0;html=1;align=left;verticalAlign=bottom;" connectable="0" vertex="1" parent="lZmN-ETSw1SqpxvYg2bJ-70">
          <mxGeometry x="-1" relative="1" as="geometry">
            <mxPoint x="5" y="20" as="offset" />
          </mxGeometry>
        </mxCell>
        <mxCell id="lZmN-ETSw1SqpxvYg2bJ-73" value="Gi1/0/2" style="edgeLabel;resizable=0;html=1;align=right;verticalAlign=bottom;" connectable="0" vertex="1" parent="lZmN-ETSw1SqpxvYg2bJ-70">
          <mxGeometry x="1" relative="1" as="geometry">
            <mxPoint y="20" as="offset" />
          </mxGeometry>
        </mxCell>
        <mxCell id="lZmN-ETSw1SqpxvYg2bJ-80" value="" style="group" vertex="1" connectable="0" parent="1">
          <mxGeometry x="860" y="44" width="139" height="90" as="geometry" />
        </mxCell>
        <mxCell id="lZmN-ETSw1SqpxvYg2bJ-74" value="指定ポート（DP)" style="text;html=1;strokeColor=none;fillColor=none;align=center;verticalAlign=middle;whiteSpace=wrap;rounded=0;fontSize=9;fontStyle=1;labelPosition=center;verticalLabelPosition=middle;" vertex="1" parent="lZmN-ETSw1SqpxvYg2bJ-80">
          <mxGeometry x="13" width="120" height="30" as="geometry" />
        </mxCell>
        <mxCell id="lZmN-ETSw1SqpxvYg2bJ-75" value="非指定ポート（NDP)" style="text;html=1;strokeColor=none;fillColor=none;align=center;verticalAlign=middle;whiteSpace=wrap;rounded=0;fontSize=9;fontStyle=1;labelPosition=center;verticalLabelPosition=middle;" vertex="1" parent="lZmN-ETSw1SqpxvYg2bJ-80">
          <mxGeometry x="19" y="30" width="120" height="30" as="geometry" />
        </mxCell>
        <mxCell id="lZmN-ETSw1SqpxvYg2bJ-76" value="ルートポート（RP)" style="text;html=1;strokeColor=none;fillColor=none;align=center;verticalAlign=middle;whiteSpace=wrap;rounded=0;fontSize=9;fontStyle=1;labelPosition=center;verticalLabelPosition=middle;" vertex="1" parent="lZmN-ETSw1SqpxvYg2bJ-80">
          <mxGeometry x="16" y="60" width="120" height="30" as="geometry" />
        </mxCell>
        <mxCell id="lZmN-ETSw1SqpxvYg2bJ-77" value="" style="ellipse;whiteSpace=wrap;html=1;aspect=fixed;strokeColor=#000000;fillColor=#00CC66;" vertex="1" parent="lZmN-ETSw1SqpxvYg2bJ-80">
          <mxGeometry y="5" width="20" height="20" as="geometry" />
        </mxCell>
        <mxCell id="lZmN-ETSw1SqpxvYg2bJ-78" value="" style="ellipse;whiteSpace=wrap;html=1;aspect=fixed;strokeColor=#000000;fillColor=#FF6666;" vertex="1" parent="lZmN-ETSw1SqpxvYg2bJ-80">
          <mxGeometry y="34" width="20" height="20" as="geometry" />
        </mxCell>
        <mxCell id="lZmN-ETSw1SqpxvYg2bJ-79" value="" style="ellipse;whiteSpace=wrap;html=1;aspect=fixed;strokeColor=#000000;fillColor=#66B2FF;" vertex="1" parent="lZmN-ETSw1SqpxvYg2bJ-80">
          <mxGeometry y="62" width="20" height="20" as="geometry" />
        </mxCell>
        <mxCell id="lZmN-ETSw1SqpxvYg2bJ-84" value="" style="group" vertex="1" connectable="0" parent="1">
          <mxGeometry x="237.5" y="50" width="122.5" height="60" as="geometry" />
        </mxCell>
        <mxCell id="lZmN-ETSw1SqpxvYg2bJ-82" value="&lt;font style=&quot;font-size: 14px;&quot;&gt;1001&lt;/font&gt;" style="shape=folder;fontStyle=1;spacingTop=20;tabWidth=53;tabHeight=20;tabPosition=left;html=1;whiteSpace=wrap;labelPosition=center;verticalLabelPosition=middle;align=center;verticalAlign=middle;" vertex="1" parent="lZmN-ETSw1SqpxvYg2bJ-84">
          <mxGeometry width="122.5" height="60" as="geometry" />
        </mxCell>
        <mxCell id="lZmN-ETSw1SqpxvYg2bJ-83" value="VLAN" style="text;html=1;strokeColor=none;fillColor=none;align=center;verticalAlign=middle;whiteSpace=wrap;rounded=0;spacing=0;" vertex="1" parent="lZmN-ETSw1SqpxvYg2bJ-84">
          <mxGeometry x="12.5" y="6" width="30" height="10" as="geometry" />
        </mxCell>
        <mxCell id="ntEa_4eT6dH7_e86Arft-1" value="" style="group" vertex="1" connectable="0" parent="1">
          <mxGeometry x="764" y="511" width="235" height="139" as="geometry" />
        </mxCell>
        <mxCell id="lZmN-ETSw1SqpxvYg2bJ-19" value="HOSTNAME-C" style="swimlane;whiteSpace=wrap;html=1;" vertex="1" parent="ntEa_4eT6dH7_e86Arft-1">
          <mxGeometry x="20" y="19" width="215" height="120" as="geometry">
            <mxRectangle x="460" y="170" width="140" height="30" as="alternateBounds" />
          </mxGeometry>
        </mxCell>
        <mxCell id="lZmN-ETSw1SqpxvYg2bJ-20" value="ー" style="text;html=1;align=left;verticalAlign=middle;resizable=0;points=[];autosize=1;strokeColor=none;fillColor=none;fontSize=11;" vertex="1" parent="lZmN-ETSw1SqpxvYg2bJ-19">
          <mxGeometry x="66" y="32" width="30" height="30" as="geometry" />
        </mxCell>
        <mxCell id="lZmN-ETSw1SqpxvYg2bJ-21" value="PRI:" style="text;html=1;align=left;verticalAlign=middle;resizable=0;points=[];autosize=1;strokeColor=none;fillColor=none;fontSize=11;" vertex="1" parent="lZmN-ETSw1SqpxvYg2bJ-19">
          <mxGeometry x="19" y="55" width="40" height="30" as="geometry" />
        </mxCell>
        <mxCell id="lZmN-ETSw1SqpxvYg2bJ-22" value="32768" style="text;html=1;align=left;verticalAlign=middle;resizable=0;points=[];autosize=1;strokeColor=none;fillColor=none;fontSize=11;" vertex="1" parent="lZmN-ETSw1SqpxvYg2bJ-19">
          <mxGeometry x="61" y="55" width="50" height="30" as="geometry" />
        </mxCell>
        <mxCell id="lZmN-ETSw1SqpxvYg2bJ-23" value="TYP:" style="text;html=1;align=left;verticalAlign=middle;resizable=0;points=[];autosize=1;strokeColor=none;fillColor=none;fontSize=11;" vertex="1" parent="lZmN-ETSw1SqpxvYg2bJ-19">
          <mxGeometry x="19" y="32" width="50" height="30" as="geometry" />
        </mxCell>
        <mxCell id="lZmN-ETSw1SqpxvYg2bJ-24" value="MAC:" style="text;html=1;align=left;verticalAlign=middle;resizable=0;points=[];autosize=1;strokeColor=none;fillColor=none;fontSize=11;" vertex="1" parent="lZmN-ETSw1SqpxvYg2bJ-19">
          <mxGeometry x="19" y="81" width="50" height="30" as="geometry" />
        </mxCell>
        <mxCell id="lZmN-ETSw1SqpxvYg2bJ-25" value="CC00.1111.2222" style="text;html=1;align=left;verticalAlign=middle;resizable=0;points=[];autosize=1;strokeColor=none;fillColor=none;fontSize=11;" vertex="1" parent="lZmN-ETSw1SqpxvYg2bJ-19">
          <mxGeometry x="62" y="81" width="100" height="30" as="geometry" />
        </mxCell>
        <mxCell id="lZmN-ETSw1SqpxvYg2bJ-62" value="&lt;font style=&quot;font-size: 9px;&quot;&gt;RP&lt;/font&gt;" style="ellipse;whiteSpace=wrap;html=1;aspect=fixed;strokeColor=#000000;fillColor=#66B2FF;" vertex="1" parent="ntEa_4eT6dH7_e86Arft-1">
          <mxGeometry x="114.5" width="20" height="20" as="geometry" />
        </mxCell>
        <mxCell id="lZmN-ETSw1SqpxvYg2bJ-67" value="&lt;font style=&quot;font-size: 9px;&quot;&gt;NDP&lt;/font&gt;" style="ellipse;whiteSpace=wrap;html=1;aspect=fixed;strokeColor=#000000;fillColor=#FF6666;" vertex="1" parent="ntEa_4eT6dH7_e86Arft-1">
          <mxGeometry y="69" width="20" height="20" as="geometry" />
        </mxCell>
        <mxCell id="ntEa_4eT6dH7_e86Arft-2" value="" style="group" vertex="1" connectable="0" parent="1">
          <mxGeometry x="190" y="511" width="235" height="139" as="geometry" />
        </mxCell>
        <mxCell id="lZmN-ETSw1SqpxvYg2bJ-12" value="HOSTNAME-B" style="swimlane;whiteSpace=wrap;html=1;" vertex="1" parent="ntEa_4eT6dH7_e86Arft-2">
          <mxGeometry y="19" width="215" height="120" as="geometry">
            <mxRectangle x="460" y="170" width="140" height="30" as="alternateBounds" />
          </mxGeometry>
        </mxCell>
        <mxCell id="lZmN-ETSw1SqpxvYg2bJ-13" value="ー" style="text;html=1;align=left;verticalAlign=middle;resizable=0;points=[];autosize=1;strokeColor=none;fillColor=none;fontSize=11;" vertex="1" parent="lZmN-ETSw1SqpxvYg2bJ-12">
          <mxGeometry x="66" y="32" width="30" height="30" as="geometry" />
        </mxCell>
        <mxCell id="lZmN-ETSw1SqpxvYg2bJ-14" value="PRI:" style="text;html=1;align=left;verticalAlign=middle;resizable=0;points=[];autosize=1;strokeColor=none;fillColor=none;fontSize=11;" vertex="1" parent="lZmN-ETSw1SqpxvYg2bJ-12">
          <mxGeometry x="19" y="55" width="40" height="30" as="geometry" />
        </mxCell>
        <mxCell id="lZmN-ETSw1SqpxvYg2bJ-15" value="32768" style="text;html=1;align=left;verticalAlign=middle;resizable=0;points=[];autosize=1;strokeColor=none;fillColor=none;fontSize=11;" vertex="1" parent="lZmN-ETSw1SqpxvYg2bJ-12">
          <mxGeometry x="61" y="55" width="50" height="30" as="geometry" />
        </mxCell>
        <mxCell id="lZmN-ETSw1SqpxvYg2bJ-16" value="TYP:" style="text;html=1;align=left;verticalAlign=middle;resizable=0;points=[];autosize=1;strokeColor=none;fillColor=none;fontSize=11;" vertex="1" parent="lZmN-ETSw1SqpxvYg2bJ-12">
          <mxGeometry x="19" y="32" width="50" height="30" as="geometry" />
        </mxCell>
        <mxCell id="lZmN-ETSw1SqpxvYg2bJ-17" value="MAC:" style="text;html=1;align=left;verticalAlign=middle;resizable=0;points=[];autosize=1;strokeColor=none;fillColor=none;fontSize=11;" vertex="1" parent="lZmN-ETSw1SqpxvYg2bJ-12">
          <mxGeometry x="19" y="81" width="50" height="30" as="geometry" />
        </mxCell>
        <mxCell id="lZmN-ETSw1SqpxvYg2bJ-18" value="CC00.1111.2222" style="text;html=1;align=left;verticalAlign=middle;resizable=0;points=[];autosize=1;strokeColor=none;fillColor=none;fontSize=11;" vertex="1" parent="lZmN-ETSw1SqpxvYg2bJ-12">
          <mxGeometry x="62" y="81" width="100" height="30" as="geometry" />
        </mxCell>
        <mxCell id="lZmN-ETSw1SqpxvYg2bJ-54" value="RP" style="ellipse;whiteSpace=wrap;html=1;aspect=fixed;strokeColor=#000000;fillColor=#66B2FF;fontSize=9;" vertex="1" parent="ntEa_4eT6dH7_e86Arft-2">
          <mxGeometry x="97.5" width="20" height="20" as="geometry" />
        </mxCell>
        <mxCell id="lZmN-ETSw1SqpxvYg2bJ-66" value="&lt;font style=&quot;font-size: 9px;&quot;&gt;DP&lt;/font&gt;" style="ellipse;whiteSpace=wrap;html=1;aspect=fixed;strokeColor=#000000;fillColor=#00CC66;" vertex="1" parent="ntEa_4eT6dH7_e86Arft-2">
          <mxGeometry x="215" y="69" width="20" height="20" as="geometry" />
        </mxCell>
        <mxCell id="ntEa_4eT6dH7_e86Arft-3" value="" style="group" vertex="1" connectable="0" parent="1">
          <mxGeometry x="474" y="170" width="215" height="141" as="geometry" />
        </mxCell>
        <mxCell id="lZmN-ETSw1SqpxvYg2bJ-1" value="HOSTNAME-A" style="swimlane;whiteSpace=wrap;html=1;fillColor=#66B2FF;" vertex="1" parent="ntEa_4eT6dH7_e86Arft-3">
          <mxGeometry width="215" height="120" as="geometry">
            <mxRectangle x="474" y="170" width="140" height="30" as="alternateBounds" />
          </mxGeometry>
        </mxCell>
        <mxCell id="lZmN-ETSw1SqpxvYg2bJ-2" value="ルートブリッジ" style="text;html=1;align=left;verticalAlign=middle;resizable=0;points=[];autosize=1;strokeColor=none;fillColor=none;fontSize=11;" vertex="1" parent="lZmN-ETSw1SqpxvYg2bJ-1">
          <mxGeometry x="66" y="32" width="100" height="30" as="geometry" />
        </mxCell>
        <mxCell id="lZmN-ETSw1SqpxvYg2bJ-3" value="PRI:" style="text;html=1;align=left;verticalAlign=middle;resizable=0;points=[];autosize=1;strokeColor=none;fillColor=none;fontSize=11;" vertex="1" parent="lZmN-ETSw1SqpxvYg2bJ-1">
          <mxGeometry x="19" y="55" width="40" height="30" as="geometry" />
        </mxCell>
        <mxCell id="lZmN-ETSw1SqpxvYg2bJ-4" value="32768" style="text;html=1;align=left;verticalAlign=middle;resizable=0;points=[];autosize=1;strokeColor=none;fillColor=none;fontSize=11;" vertex="1" parent="lZmN-ETSw1SqpxvYg2bJ-1">
          <mxGeometry x="61" y="55" width="50" height="30" as="geometry" />
        </mxCell>
        <mxCell id="lZmN-ETSw1SqpxvYg2bJ-5" value="TYP:" style="text;html=1;align=left;verticalAlign=middle;resizable=0;points=[];autosize=1;strokeColor=none;fillColor=none;fontSize=11;" vertex="1" parent="lZmN-ETSw1SqpxvYg2bJ-1">
          <mxGeometry x="19" y="32" width="50" height="30" as="geometry" />
        </mxCell>
        <mxCell id="lZmN-ETSw1SqpxvYg2bJ-10" value="MAC:" style="text;html=1;align=left;verticalAlign=middle;resizable=0;points=[];autosize=1;strokeColor=none;fillColor=none;fontSize=11;" vertex="1" parent="lZmN-ETSw1SqpxvYg2bJ-1">
          <mxGeometry x="19" y="81" width="50" height="30" as="geometry" />
        </mxCell>
        <mxCell id="lZmN-ETSw1SqpxvYg2bJ-11" value="CC00.1111.2222" style="text;html=1;align=left;verticalAlign=middle;resizable=0;points=[];autosize=1;strokeColor=none;fillColor=none;fontSize=11;" vertex="1" parent="lZmN-ETSw1SqpxvYg2bJ-1">
          <mxGeometry x="62" y="81" width="100" height="30" as="geometry" />
        </mxCell>
        <mxCell id="lZmN-ETSw1SqpxvYg2bJ-52" value="DP" style="ellipse;whiteSpace=wrap;html=1;aspect=fixed;strokeColor=#000000;fillColor=#00CC66;fontSize=9;" vertex="1" parent="ntEa_4eT6dH7_e86Arft-3">
          <mxGeometry x="25" y="121" width="20" height="20" as="geometry" />
        </mxCell>
        <mxCell id="lZmN-ETSw1SqpxvYg2bJ-61" value="&lt;font style=&quot;font-size: 9px;&quot;&gt;DP&lt;/font&gt;" style="ellipse;whiteSpace=wrap;html=1;aspect=fixed;strokeColor=#000000;fillColor=#00CC66;" vertex="1" parent="ntEa_4eT6dH7_e86Arft-3">
          <mxGeometry x="165" y="120" width="20" height="20" as="geometry" />
        </mxCell>
      </root>
    </mxGraphModel>
  </diagram>
  <diagram id="k6aR9NV0nVTvYKTfSZ6E" name="stp-network-2">
    <mxGraphModel dx="1418" dy="838" grid="1" gridSize="10" guides="1" tooltips="1" connect="1" arrows="1" fold="1" page="1" pageScale="1" pageWidth="1169" pageHeight="827" math="0" shadow="0">
      <root>
        <mxCell id="0" />
        <mxCell id="1" parent="0" />
        <mxCell id="lIcX3N6LtxaNZ1xSd4xb-1" value="" style="group" vertex="1" connectable="0" parent="1">
          <mxGeometry x="860" y="44" width="139" height="90" as="geometry" />
        </mxCell>
        <mxCell id="lIcX3N6LtxaNZ1xSd4xb-2" value="指定ポート（DP)" style="text;html=1;strokeColor=none;fillColor=none;align=center;verticalAlign=middle;whiteSpace=wrap;rounded=0;fontSize=9;fontStyle=1;labelPosition=center;verticalLabelPosition=middle;" vertex="1" parent="lIcX3N6LtxaNZ1xSd4xb-1">
          <mxGeometry x="13" width="120" height="30" as="geometry" />
        </mxCell>
        <mxCell id="lIcX3N6LtxaNZ1xSd4xb-3" value="非指定ポート（NDP)" style="text;html=1;strokeColor=none;fillColor=none;align=center;verticalAlign=middle;whiteSpace=wrap;rounded=0;fontSize=9;fontStyle=1;labelPosition=center;verticalLabelPosition=middle;" vertex="1" parent="lIcX3N6LtxaNZ1xSd4xb-1">
          <mxGeometry x="19" y="30" width="120" height="30" as="geometry" />
        </mxCell>
        <mxCell id="lIcX3N6LtxaNZ1xSd4xb-4" value="ルートポート（RP)" style="text;html=1;strokeColor=none;fillColor=none;align=center;verticalAlign=middle;whiteSpace=wrap;rounded=0;fontSize=9;fontStyle=1;labelPosition=center;verticalLabelPosition=middle;" vertex="1" parent="lIcX3N6LtxaNZ1xSd4xb-1">
          <mxGeometry x="16" y="60" width="120" height="30" as="geometry" />
        </mxCell>
        <mxCell id="lIcX3N6LtxaNZ1xSd4xb-5" value="" style="ellipse;whiteSpace=wrap;html=1;aspect=fixed;strokeColor=#000000;fillColor=#00CC66;" vertex="1" parent="lIcX3N6LtxaNZ1xSd4xb-1">
          <mxGeometry y="5" width="20" height="20" as="geometry" />
        </mxCell>
        <mxCell id="lIcX3N6LtxaNZ1xSd4xb-6" value="" style="ellipse;whiteSpace=wrap;html=1;aspect=fixed;strokeColor=#000000;fillColor=#FF6666;" vertex="1" parent="lIcX3N6LtxaNZ1xSd4xb-1">
          <mxGeometry y="34" width="20" height="20" as="geometry" />
        </mxCell>
        <mxCell id="lIcX3N6LtxaNZ1xSd4xb-7" value="" style="ellipse;whiteSpace=wrap;html=1;aspect=fixed;strokeColor=#000000;fillColor=#66B2FF;" vertex="1" parent="lIcX3N6LtxaNZ1xSd4xb-1">
          <mxGeometry y="62" width="20" height="20" as="geometry" />
        </mxCell>
        <mxCell id="lIcX3N6LtxaNZ1xSd4xb-8" value="" style="group" vertex="1" connectable="0" parent="1">
          <mxGeometry x="237.5" y="50" width="122.5" height="60" as="geometry" />
        </mxCell>
        <mxCell id="lIcX3N6LtxaNZ1xSd4xb-9" value="&lt;font style=&quot;font-size: 14px;&quot;&gt;1001&lt;/font&gt;" style="shape=folder;fontStyle=1;spacingTop=20;tabWidth=53;tabHeight=20;tabPosition=left;html=1;whiteSpace=wrap;labelPosition=center;verticalLabelPosition=middle;align=center;verticalAlign=middle;" vertex="1" parent="lIcX3N6LtxaNZ1xSd4xb-8">
          <mxGeometry width="122.5" height="60" as="geometry" />
        </mxCell>
        <mxCell id="lIcX3N6LtxaNZ1xSd4xb-10" value="VLAN" style="text;html=1;strokeColor=none;fillColor=none;align=center;verticalAlign=middle;whiteSpace=wrap;rounded=0;spacing=0;" vertex="1" parent="lIcX3N6LtxaNZ1xSd4xb-8">
          <mxGeometry x="12.5" y="6" width="30" height="10" as="geometry" />
        </mxCell>
        <mxCell id="NGtQI4fehyZyA3oJrEns-19" value="" style="endArrow=none;html=1;rounded=0;endFill=0;edgeStyle=orthogonalEdgeStyle;entryX=0;entryY=0.5;entryDx=0;entryDy=0;" edge="1" parent="1" source="NGtQI4fehyZyA3oJrEns-15" target="NGtQI4fehyZyA3oJrEns-16">
          <mxGeometry relative="1" as="geometry">
            <mxPoint x="658" y="89" as="sourcePoint" />
            <mxPoint x="759" y="359" as="targetPoint" />
          </mxGeometry>
        </mxCell>
        <mxCell id="NGtQI4fehyZyA3oJrEns-20" value="1Gbps" style="edgeLabel;resizable=0;html=1;align=center;verticalAlign=middle;" connectable="0" vertex="1" parent="NGtQI4fehyZyA3oJrEns-19">
          <mxGeometry relative="1" as="geometry" />
        </mxCell>
        <mxCell id="NGtQI4fehyZyA3oJrEns-21" value="Gi1/0/2" style="edgeLabel;resizable=0;html=1;align=left;verticalAlign=bottom;" connectable="0" vertex="1" parent="NGtQI4fehyZyA3oJrEns-19">
          <mxGeometry x="-1" relative="1" as="geometry">
            <mxPoint x="5" y="20" as="offset" />
          </mxGeometry>
        </mxCell>
        <mxCell id="NGtQI4fehyZyA3oJrEns-22" value="Gi1/0/3" style="edgeLabel;resizable=0;html=1;align=right;verticalAlign=bottom;" connectable="0" vertex="1" parent="NGtQI4fehyZyA3oJrEns-19">
          <mxGeometry x="1" relative="1" as="geometry">
            <mxPoint y="20" as="offset" />
          </mxGeometry>
        </mxCell>
        <mxCell id="nphpCRPMLRBi2Kv2OGru-7" value="" style="endArrow=none;html=1;rounded=0;endFill=0;edgeStyle=orthogonalEdgeStyle;entryX=0;entryY=0.5;entryDx=0;entryDy=0;" edge="1" parent="1" source="nphpCRPMLRBi2Kv2OGru-5" target="nphpCRPMLRBi2Kv2OGru-6">
          <mxGeometry relative="1" as="geometry">
            <mxPoint x="658" y="52" as="sourcePoint" />
            <mxPoint x="759" y="322" as="targetPoint" />
          </mxGeometry>
        </mxCell>
        <mxCell id="nphpCRPMLRBi2Kv2OGru-8" value="1Gbps" style="edgeLabel;resizable=0;html=1;align=center;verticalAlign=middle;" connectable="0" vertex="1" parent="nphpCRPMLRBi2Kv2OGru-7">
          <mxGeometry relative="1" as="geometry" />
        </mxCell>
        <mxCell id="nphpCRPMLRBi2Kv2OGru-9" value="Gi1/0/1" style="edgeLabel;resizable=0;html=1;align=left;verticalAlign=bottom;" connectable="0" vertex="1" parent="nphpCRPMLRBi2Kv2OGru-7">
          <mxGeometry x="-1" relative="1" as="geometry">
            <mxPoint x="4" y="20" as="offset" />
          </mxGeometry>
        </mxCell>
        <mxCell id="nphpCRPMLRBi2Kv2OGru-10" value="Gi1/0/2" style="edgeLabel;resizable=0;html=1;align=right;verticalAlign=bottom;" connectable="0" vertex="1" parent="nphpCRPMLRBi2Kv2OGru-7">
          <mxGeometry x="1" relative="1" as="geometry">
            <mxPoint x="-1" y="20" as="offset" />
          </mxGeometry>
        </mxCell>
        <mxCell id="6khXlQSQMNL0B0QIrX0B-1" value="" style="group" vertex="1" connectable="0" parent="1">
          <mxGeometry x="763" y="280" width="236" height="120" as="geometry" />
        </mxCell>
        <mxCell id="NGtQI4fehyZyA3oJrEns-8" value="HOSTNAME-C" style="swimlane;whiteSpace=wrap;html=1;" vertex="1" parent="6khXlQSQMNL0B0QIrX0B-1">
          <mxGeometry x="21" width="215" height="120" as="geometry">
            <mxRectangle x="460" y="170" width="140" height="30" as="alternateBounds" />
          </mxGeometry>
        </mxCell>
        <mxCell id="NGtQI4fehyZyA3oJrEns-9" value="ー" style="text;html=1;align=left;verticalAlign=middle;resizable=0;points=[];autosize=1;strokeColor=none;fillColor=none;fontSize=11;" vertex="1" parent="NGtQI4fehyZyA3oJrEns-8">
          <mxGeometry x="66" y="51" width="30" height="30" as="geometry" />
        </mxCell>
        <mxCell id="NGtQI4fehyZyA3oJrEns-10" value="PRI:" style="text;html=1;align=left;verticalAlign=middle;resizable=0;points=[];autosize=1;strokeColor=none;fillColor=none;fontSize=11;" vertex="1" parent="NGtQI4fehyZyA3oJrEns-8">
          <mxGeometry x="18" y="74" width="40" height="30" as="geometry" />
        </mxCell>
        <mxCell id="NGtQI4fehyZyA3oJrEns-11" value="32768" style="text;html=1;align=left;verticalAlign=middle;resizable=0;points=[];autosize=1;strokeColor=none;fillColor=none;fontSize=11;" vertex="1" parent="NGtQI4fehyZyA3oJrEns-8">
          <mxGeometry x="61" y="55" width="50" height="30" as="geometry" />
        </mxCell>
        <mxCell id="NGtQI4fehyZyA3oJrEns-12" value="TYP:" style="text;html=1;align=left;verticalAlign=middle;resizable=0;points=[];autosize=1;strokeColor=none;fillColor=none;fontSize=11;" vertex="1" parent="NGtQI4fehyZyA3oJrEns-8">
          <mxGeometry x="19" y="51" width="50" height="30" as="geometry" />
        </mxCell>
        <mxCell id="NGtQI4fehyZyA3oJrEns-13" value="MAC:" style="text;html=1;align=left;verticalAlign=middle;resizable=0;points=[];autosize=1;strokeColor=none;fillColor=none;fontSize=11;" vertex="1" parent="NGtQI4fehyZyA3oJrEns-8">
          <mxGeometry x="18" y="100" width="50" height="30" as="geometry" />
        </mxCell>
        <mxCell id="NGtQI4fehyZyA3oJrEns-14" value="CC00.1111.2222" style="text;html=1;align=left;verticalAlign=middle;resizable=0;points=[];autosize=1;strokeColor=none;fillColor=none;fontSize=11;" vertex="1" parent="NGtQI4fehyZyA3oJrEns-8">
          <mxGeometry x="62" y="81" width="100" height="30" as="geometry" />
        </mxCell>
        <mxCell id="NGtQI4fehyZyA3oJrEns-16" value="&lt;font style=&quot;font-size: 9px;&quot;&gt;NDP&lt;/font&gt;" style="ellipse;whiteSpace=wrap;html=1;aspect=fixed;strokeColor=#000000;fillColor=#FF6666;" vertex="1" parent="6khXlQSQMNL0B0QIrX0B-1">
          <mxGeometry y="69" width="20" height="20" as="geometry" />
        </mxCell>
        <mxCell id="nphpCRPMLRBi2Kv2OGru-1" value="ー" style="text;html=1;align=left;verticalAlign=middle;resizable=0;points=[];autosize=1;strokeColor=none;fillColor=none;fontSize=11;" vertex="1" parent="6khXlQSQMNL0B0QIrX0B-1">
          <mxGeometry x="86" y="14" width="30" height="30" as="geometry" />
        </mxCell>
        <mxCell id="nphpCRPMLRBi2Kv2OGru-2" value="PRI:" style="text;html=1;align=left;verticalAlign=middle;resizable=0;points=[];autosize=1;strokeColor=none;fillColor=none;fontSize=11;" vertex="1" parent="6khXlQSQMNL0B0QIrX0B-1">
          <mxGeometry x="39" y="37" width="40" height="30" as="geometry" />
        </mxCell>
        <mxCell id="nphpCRPMLRBi2Kv2OGru-3" value="TYP:" style="text;html=1;align=left;verticalAlign=middle;resizable=0;points=[];autosize=1;strokeColor=none;fillColor=none;fontSize=11;" vertex="1" parent="6khXlQSQMNL0B0QIrX0B-1">
          <mxGeometry x="39" y="14" width="50" height="30" as="geometry" />
        </mxCell>
        <mxCell id="nphpCRPMLRBi2Kv2OGru-4" value="MAC:" style="text;html=1;align=left;verticalAlign=middle;resizable=0;points=[];autosize=1;strokeColor=none;fillColor=none;fontSize=11;" vertex="1" parent="6khXlQSQMNL0B0QIrX0B-1">
          <mxGeometry x="38" y="63" width="50" height="30" as="geometry" />
        </mxCell>
        <mxCell id="nphpCRPMLRBi2Kv2OGru-6" value="&lt;font style=&quot;font-size: 9px;&quot;&gt;RP&lt;/font&gt;" style="ellipse;whiteSpace=wrap;html=1;aspect=fixed;strokeColor=#000000;fillColor=#66B2FF;" vertex="1" parent="6khXlQSQMNL0B0QIrX0B-1">
          <mxGeometry y="32" width="20" height="20" as="geometry" />
        </mxCell>
        <mxCell id="6khXlQSQMNL0B0QIrX0B-2" value="" style="group" vertex="1" connectable="0" parent="1">
          <mxGeometry x="190" y="280" width="234" height="120" as="geometry" />
        </mxCell>
        <mxCell id="NGtQI4fehyZyA3oJrEns-1" value="HOSTNAME-B" style="swimlane;whiteSpace=wrap;html=1;fillColor=#66B2FF;" vertex="1" parent="6khXlQSQMNL0B0QIrX0B-2">
          <mxGeometry width="215" height="120" as="geometry">
            <mxRectangle x="460" y="170" width="140" height="30" as="alternateBounds" />
          </mxGeometry>
        </mxCell>
        <mxCell id="NGtQI4fehyZyA3oJrEns-2" value="ルートブリッジ" style="text;html=1;align=left;verticalAlign=middle;resizable=0;points=[];autosize=1;strokeColor=none;fillColor=none;fontSize=11;" vertex="1" parent="NGtQI4fehyZyA3oJrEns-1">
          <mxGeometry x="66" y="32" width="100" height="30" as="geometry" />
        </mxCell>
        <mxCell id="NGtQI4fehyZyA3oJrEns-3" value="PRI:" style="text;html=1;align=left;verticalAlign=middle;resizable=0;points=[];autosize=1;strokeColor=none;fillColor=none;fontSize=11;" vertex="1" parent="NGtQI4fehyZyA3oJrEns-1">
          <mxGeometry x="19" y="55" width="40" height="30" as="geometry" />
        </mxCell>
        <mxCell id="NGtQI4fehyZyA3oJrEns-4" value="32768" style="text;html=1;align=left;verticalAlign=middle;resizable=0;points=[];autosize=1;strokeColor=none;fillColor=none;fontSize=11;" vertex="1" parent="NGtQI4fehyZyA3oJrEns-1">
          <mxGeometry x="61" y="55" width="50" height="30" as="geometry" />
        </mxCell>
        <mxCell id="NGtQI4fehyZyA3oJrEns-5" value="TYP:" style="text;html=1;align=left;verticalAlign=middle;resizable=0;points=[];autosize=1;strokeColor=none;fillColor=none;fontSize=11;" vertex="1" parent="NGtQI4fehyZyA3oJrEns-1">
          <mxGeometry x="19" y="32" width="50" height="30" as="geometry" />
        </mxCell>
        <mxCell id="NGtQI4fehyZyA3oJrEns-6" value="MAC:" style="text;html=1;align=left;verticalAlign=middle;resizable=0;points=[];autosize=1;strokeColor=none;fillColor=none;fontSize=11;" vertex="1" parent="NGtQI4fehyZyA3oJrEns-1">
          <mxGeometry x="19" y="81" width="50" height="30" as="geometry" />
        </mxCell>
        <mxCell id="NGtQI4fehyZyA3oJrEns-7" value="CC00.1111.2222" style="text;html=1;align=left;verticalAlign=middle;resizable=0;points=[];autosize=1;strokeColor=none;fillColor=none;fontSize=11;" vertex="1" parent="NGtQI4fehyZyA3oJrEns-1">
          <mxGeometry x="62" y="81" width="100" height="30" as="geometry" />
        </mxCell>
        <mxCell id="NGtQI4fehyZyA3oJrEns-15" value="&lt;font style=&quot;font-size: 9px;&quot;&gt;DP&lt;/font&gt;" style="ellipse;whiteSpace=wrap;html=1;aspect=fixed;strokeColor=#000000;fillColor=#00CC66;" vertex="1" parent="6khXlQSQMNL0B0QIrX0B-2">
          <mxGeometry x="214" y="69" width="20" height="20" as="geometry" />
        </mxCell>
        <mxCell id="nphpCRPMLRBi2Kv2OGru-5" value="&lt;font style=&quot;font-size: 9px;&quot;&gt;DP&lt;/font&gt;" style="ellipse;whiteSpace=wrap;html=1;aspect=fixed;strokeColor=#000000;fillColor=#00CC66;" vertex="1" parent="6khXlQSQMNL0B0QIrX0B-2">
          <mxGeometry x="214" y="32" width="20" height="20" as="geometry" />
        </mxCell>
      </root>
    </mxGraphModel>
  </diagram>
</mxfile>
